<svg width="177" height="40" viewBox="0 0 177 40" fill="none" xmlns="http://www.w3.org/2000/svg">
<g clip-path="url(#clip0_462_187)">
<path d="M15.75 40C10.757 40 6.88373 38.7517 4.13024 36.2551C1.37675 33.7585 0 29.9774 0 24.9118V2.82225C0 2.42424 0.11014 2.0986 0.330419 1.84532C0.587411 1.59204 0.91783 1.4654 1.32168 1.4654H6.3881C6.79194 1.4654 7.12236 1.59204 7.37936 1.84532C7.63635 2.0986 7.76485 2.42424 7.76485 2.82225V24.9118C7.76485 27.7702 8.44404 29.9231 9.80243 31.3704C11.1975 32.8177 13.1617 33.5414 15.6949 33.5414C18.2281 33.5414 20.1739 32.8177 21.5323 31.3704C22.9274 29.9231 23.625 27.7702 23.625 24.9118V2.82225C23.625 2.42424 23.7535 2.0986 24.0104 1.84532C24.2674 1.59204 24.5979 1.4654 25.0017 1.4654H30.0681C30.472 1.4654 30.784 1.59204 31.0043 1.84532C31.2613 2.0986 31.3898 2.42424 31.3898 2.82225V24.9118C31.3898 29.9774 30.0131 33.7585 27.2596 36.2551C24.5428 38.7517 20.7063 40 15.75 40Z" fill="#3B7CD1"/>
<path d="M39.9214 39.4573C39.5542 39.4573 39.2422 39.3306 38.9852 39.0773C38.7282 38.8241 38.5997 38.5165 38.5997 38.1547V12.5373C38.5997 12.1393 38.7282 11.8318 38.9852 11.6147C39.2422 11.3614 39.5542 11.2347 39.9214 11.2347H44.4922C44.896 11.2347 45.2081 11.3614 45.4283 11.6147C45.6853 11.8318 45.8138 12.1393 45.8138 12.5373V14.7626C48.0533 12.0488 51.1189 10.692 55.0105 10.692C58.3881 10.692 61.0682 11.7775 63.0507 13.9484C65.0332 16.1194 66.0245 19.1045 66.0245 22.9037V38.1547C66.0245 38.5165 65.896 38.8241 65.639 39.0773C65.4187 39.3306 65.1066 39.4573 64.7028 39.4573H59.7465C59.3794 39.4573 59.0673 39.3306 58.8103 39.0773C58.5533 38.8241 58.4248 38.5165 58.4248 38.1547V23.2293C58.4248 21.1307 57.8925 19.5025 56.8278 18.3446C55.7998 17.1506 54.3129 16.5536 52.3671 16.5536C50.4948 16.5536 48.9895 17.1506 47.8514 18.3446C46.7133 19.5387 46.1443 21.1669 46.1443 23.2293V38.1547C46.1443 38.5165 46.0158 38.8241 45.7588 39.0773C45.5385 39.3306 45.2264 39.4573 44.8226 39.4573H39.9214Z" fill="#3B7CD1"/>
<path d="M74.1197 6.62144C73.7526 6.62144 73.4405 6.4948 73.1835 6.24152C72.9265 5.98824 72.798 5.68069 72.798 5.31886V1.35685C72.798 0.958843 72.9265 0.633198 73.1835 0.37992C73.4405 0.12664 73.7526 0 74.1197 0H79.1861C79.59 0 79.9204 0.12664 80.1774 0.37992C80.4344 0.633198 80.5629 0.958843 80.5629 1.35685V5.31886C80.5629 5.68069 80.416 5.98824 80.1223 6.24152C79.8653 6.4948 79.5533 6.62144 79.1861 6.62144H74.1197ZM74.34 39.4573C73.9729 39.4573 73.6608 39.3306 73.4038 39.0773C73.1468 38.8241 73.0183 38.5165 73.0183 38.1547V12.5373C73.0183 12.1393 73.1468 11.8318 73.4038 11.6147C73.6608 11.3614 73.9729 11.2347 74.34 11.2347H79.0209C79.3881 11.2347 79.7001 11.3614 79.9571 11.6147C80.2141 11.8679 80.3426 12.1755 80.3426 12.5373V38.1547C80.3426 38.5165 80.2141 38.8241 79.9571 39.0773C79.7001 39.3306 79.3881 39.4573 79.0209 39.4573H74.34Z" fill="#3B7CD1"/>
<path d="M98.1077 39.4573C97.557 39.4573 97.1348 39.3487 96.8411 39.1316C96.5474 38.8783 96.3088 38.5346 96.1252 38.1004L85.7721 12.9172C85.7354 12.8087 85.717 12.6459 85.717 12.4288C85.717 12.1031 85.8272 11.8318 86.0475 11.6147C86.3044 11.3614 86.5798 11.2347 86.8735 11.2347H91.4443C92.1786 11.2347 92.6742 11.5785 92.9312 12.2659L100.2 31.2076L107.47 12.2659C107.543 12.0127 107.69 11.7775 107.91 11.5604C108.167 11.3433 108.498 11.2347 108.901 11.2347H113.472C113.803 11.2347 114.078 11.3614 114.298 11.6147C114.519 11.8318 114.629 12.1031 114.629 12.4288C114.629 12.6459 114.61 12.8087 114.574 12.9172L104.276 38.1004C103.872 39.005 103.211 39.4573 102.293 39.4573H98.1077Z" fill="#3B7CD1"/>
<path d="M117.968 39.4573C117.601 39.4573 117.289 39.3487 117.032 39.1316C116.812 38.8783 116.702 38.5708 116.702 38.209V34.464C116.702 34.1022 116.812 33.7947 117.032 33.5414C117.289 33.2881 117.601 33.1615 117.968 33.1615H121.768C122.135 33.1615 122.429 33.2881 122.649 33.5414C122.906 33.7947 123.035 34.1022 123.035 34.464V38.209C123.035 38.5708 122.906 38.8783 122.649 39.1316C122.429 39.3487 122.135 39.4573 121.768 39.4573H117.968Z" fill="#3B7CD1"/>
<path d="M134.96 39.4573C134.666 39.4573 134.41 39.3487 134.189 39.1316C133.969 38.9145 133.859 38.6612 133.859 38.3718L133.969 37.7748L147.902 2.55088C148.195 1.82723 148.728 1.4654 149.499 1.4654H151.371C152.142 1.4654 152.674 1.82723 152.968 2.55088L166.901 37.7748L167.011 38.3718C167.011 38.6612 166.901 38.9145 166.68 39.1316C166.46 39.3487 166.203 39.4573 165.909 39.4573H164.808C164.478 39.4573 164.202 39.3668 163.982 39.1859C163.798 39.005 163.67 38.8241 163.597 38.6431L160.182 29.9593H140.687L137.273 38.6431C137.2 38.8241 137.053 39.005 136.833 39.1859C136.649 39.3668 136.392 39.4573 136.062 39.4573H134.96ZM142.009 26.7029H158.861L150.435 5.31886L142.009 26.7029Z" fill="#3B7CD1"/>
<path d="M174.742 39.4573C174.375 39.4573 174.081 39.3487 173.861 39.1316C173.641 38.9145 173.531 38.6251 173.531 38.2632V2.65943C173.531 2.2976 173.641 2.00814 173.861 1.79105C174.081 1.57395 174.375 1.4654 174.742 1.4654H175.788C176.156 1.4654 176.449 1.57395 176.67 1.79105C176.89 2.00814 177 2.2976 177 2.65943V38.2632C177 38.6251 176.89 38.9145 176.67 39.1316C176.449 39.3487 176.156 39.4573 175.788 39.4573H174.742Z" fill="#3B7CD1"/>
</g>
<defs>
<clipPath id="clip0_462_187">
<rect width="177" height="40" fill="white"/>
</clipPath>
</defs>
</svg>
